<svg xmlns="http://www.w3.org/2000/svg" viewBox="0 0 45 45" shape-rendering="crispEdges" role="img" aria-label="Código QR de Yape de Paisajes Educativos"><rect width="45" height="45" fill="#fff"/><path fill="#5B1370" d="M2 2h7v1h-7zM11 2h2v1h-2zM16 2h2v1h-2zM21 2h1v1h-1zM23 2h4v1h-4zM28 2h7v1h-7zM36 2h7v1h-7zM2 3h1v1h-1zM8 3h1v1h-1zM10 3h1v1h-1zM12 3h2v1h-2zM16 3h1v1h-1zM18 3h2v1h-2zM21 3h1v1h-1zM26 3h3v1h-3zM30 3h1v1h-1zM32 3h1v1h-1zM36 3h1v1h-1zM42 3h1v1h-1zM2 4h1v1h-1zM4 4h3v1h-3zM8 4h1v1h-1zM10 4h1v1h-1zM12 4h1v1h-1zM15 4h7v1h-7zM23 4h2v1h-2zM26 4h2v1h-2zM36 4h1v1h-1zM38 4h3v1h-3zM42 4h1v1h-1zM2 5h1v1h-1zM4 5h3v1h-3zM8 5h1v1h-1zM10 5h1v1h-1zM12 5h1v1h-1zM14 5h1v1h-1zM17 5h2v1h-2zM22 5h1v1h-1zM24 5h1v1h-1zM30 5h1v1h-1zM32 5h3v1h-3zM36 5h1v1h-1zM38 5h3v1h-3zM42 5h1v1h-1zM2 6h1v1h-1zM4 6h3v1h-3zM8 6h1v1h-1zM12 6h3v1h-3zM17 6h1v1h-1zM20 6h8v1h-8zM30 6h1v1h-1zM33 6h2v1h-2zM36 6h1v1h-1zM38 6h3v1h-3zM42 6h1v1h-1zM2 7h1v1h-1zM8 7h1v1h-1zM11 7h2v1h-2zM14 7h3v1h-3zM18 7h1v1h-1zM21 7h1v1h-1zM23 7h2v1h-2zM26 7h1v1h-1zM32 7h1v1h-1zM36 7h1v1h-1zM42 7h1v1h-1zM2 8h7v1h-7zM10 8h1v1h-1zM12 8h1v1h-1zM14 8h1v1h-1zM16 8h1v1h-1zM18 8h1v1h-1zM20 8h1v1h-1zM22 8h1v1h-1zM24 8h1v1h-1zM26 8h1v1h-1zM28 8h1v1h-1zM30 8h1v1h-1zM32 8h1v1h-1zM34 8h1v1h-1zM36 8h7v1h-7zM10 9h2v1h-2zM14 9h2v1h-2zM17 9h1v1h-1zM20 9h1v1h-1zM24 9h1v1h-1zM28 9h1v1h-1zM32 9h3v1h-3zM2 10h1v1h-1zM8 10h1v1h-1zM10 10h1v1h-1zM14 10h2v1h-2zM17 10h1v1h-1zM19 10h2v1h-2zM22 10h1v1h-1zM27 10h1v1h-1zM30 10h3v1h-3zM34 10h3v1h-3zM39 10h3v1h-3zM3 11h1v1h-1zM6 11h2v1h-2zM10 11h3v1h-3zM14 11h4v1h-4zM21 11h2v1h-2zM25 11h2v1h-2zM29 11h2v1h-2zM33 11h2v1h-2zM36 11h3v1h-3zM40 11h1v1h-1zM3 12h1v1h-1zM8 12h2v1h-2zM11 12h1v1h-1zM14 12h1v1h-1zM19 12h2v1h-2zM22 12h3v1h-3zM28 12h5v1h-5zM34 12h1v1h-1zM2 13h4v1h-4zM11 13h1v1h-1zM13 13h1v1h-1zM16 13h3v1h-3zM25 13h2v1h-2zM28 13h2v1h-2zM32 13h1v1h-1zM37 13h2v1h-2zM42 13h1v1h-1zM3 14h8v1h-8zM13 14h2v1h-2zM16 14h1v1h-1zM19 14h3v1h-3zM24 14h3v1h-3zM29 14h1v1h-1zM32 14h3v1h-3zM36 14h1v1h-1zM42 14h1v1h-1zM2 15h1v1h-1zM6 15h2v1h-2zM9 15h1v1h-1zM11 15h1v1h-1zM15 15h1v1h-1zM19 15h2v1h-2zM24 15h1v1h-1zM31 15h1v1h-1zM34 15h3v1h-3zM38 15h1v1h-1zM41 15h1v1h-1zM2 16h1v1h-1zM4 16h2v1h-2zM8 16h1v1h-1zM10 16h5v1h-5zM16 16h2v1h-2zM19 16h2v1h-2zM22 16h2v1h-2zM25 16h3v1h-3zM29 16h3v1h-3zM33 16h1v1h-1zM35 16h1v1h-1zM38 16h4v1h-4zM7 17h1v1h-1zM11 17h2v1h-2zM14 17h1v1h-1zM18 17h3v1h-3zM22 17h1v1h-1zM24 17h2v1h-2zM27 17h1v1h-1zM30 17h1v1h-1zM32 17h2v1h-2zM36 17h1v1h-1zM40 17h1v1h-1zM42 17h1v1h-1zM2 18h3v1h-3zM6 18h1v1h-1zM8 18h3v1h-3zM12 18h4v1h-4zM17 18h1v1h-1zM22 18h2v1h-2zM25 18h1v1h-1zM27 18h1v1h-1zM29 18h3v1h-3zM33 18h1v1h-1zM35 18h1v1h-1zM37 18h1v1h-1zM39 18h2v1h-2zM42 18h1v1h-1zM4 19h3v1h-3zM9 19h2v1h-2zM15 19h3v1h-3zM20 19h1v1h-1zM22 19h4v1h-4zM28 19h1v1h-1zM31 19h6v1h-6zM38 19h2v1h-2zM42 19h1v1h-1zM2 20h4v1h-4zM7 20h6v1h-6zM15 20h1v1h-1zM19 20h2v1h-2zM22 20h1v1h-1zM27 20h2v1h-2zM30 20h1v1h-1zM33 20h1v1h-1zM36 20h2v1h-2zM42 20h1v1h-1zM2 21h2v1h-2zM7 21h1v1h-1zM11 21h2v1h-2zM14 21h1v1h-1zM16 21h1v1h-1zM18 21h1v1h-1zM21 21h3v1h-3zM26 21h1v1h-1zM28 21h2v1h-2zM31 21h2v1h-2zM35 21h2v1h-2zM38 21h1v1h-1zM42 21h1v1h-1zM2 22h4v1h-4zM8 22h1v1h-1zM10 22h1v1h-1zM12 22h1v1h-1zM15 22h2v1h-2zM20 22h1v1h-1zM23 22h2v1h-2zM30 22h1v1h-1zM33 22h1v1h-1zM3 23h3v1h-3zM7 23h1v1h-1zM11 23h4v1h-4zM18 23h1v1h-1zM21 23h2v1h-2zM24 23h3v1h-3zM29 23h2v1h-2zM32 23h2v1h-2zM37 23h2v1h-2zM40 23h2v1h-2zM3 24h2v1h-2zM6 24h1v1h-1zM8 24h2v1h-2zM11 24h1v1h-1zM14 24h3v1h-3zM22 24h1v1h-1zM24 24h1v1h-1zM27 24h1v1h-1zM29 24h4v1h-4zM34 24h2v1h-2zM38 24h1v1h-1zM41 24h1v1h-1zM2 25h1v1h-1zM4 25h2v1h-2zM10 25h1v1h-1zM16 25h1v1h-1zM25 25h1v1h-1zM28 25h1v1h-1zM30 25h1v1h-1zM32 25h5v1h-5zM38 25h2v1h-2zM2 26h1v1h-1zM6 26h3v1h-3zM11 26h2v1h-2zM16 26h1v1h-1zM20 26h2v1h-2zM24 26h3v1h-3zM28 26h2v1h-2zM32 26h2v1h-2zM35 26h1v1h-1zM37 26h3v1h-3zM41 26h2v1h-2zM9 27h1v1h-1zM12 27h4v1h-4zM18 27h1v1h-1zM21 27h1v1h-1zM23 27h3v1h-3zM28 27h2v1h-2zM31 27h1v1h-1zM33 27h1v1h-1zM38 27h1v1h-1zM42 27h1v1h-1zM8 28h1v1h-1zM11 28h1v1h-1zM13 28h1v1h-1zM15 28h3v1h-3zM20 28h1v1h-1zM22 28h2v1h-2zM26 28h2v1h-2zM29 28h2v1h-2zM32 28h1v1h-1zM35 28h1v1h-1zM38 28h1v1h-1zM2 29h2v1h-2zM6 29h2v1h-2zM9 29h1v1h-1zM12 29h1v1h-1zM14 29h1v1h-1zM16 29h1v1h-1zM18 29h5v1h-5zM24 29h1v1h-1zM26 29h1v1h-1zM28 29h1v1h-1zM30 29h1v1h-1zM32 29h1v1h-1zM34 29h1v1h-1zM36 29h1v1h-1zM38 29h1v1h-1zM40 29h1v1h-1zM42 29h1v1h-1zM5 30h2v1h-2zM8 30h1v1h-1zM14 30h1v1h-1zM16 30h1v1h-1zM18 30h1v1h-1zM20 30h1v1h-1zM24 30h1v1h-1zM27 30h1v1h-1zM29 30h1v1h-1zM31 30h2v1h-2zM37 30h1v1h-1zM39 30h2v1h-2zM42 30h1v1h-1zM2 31h1v1h-1zM4 31h1v1h-1zM7 31h1v1h-1zM9 31h3v1h-3zM13 31h1v1h-1zM15 31h2v1h-2zM18 31h1v1h-1zM20 31h1v1h-1zM22 31h2v1h-2zM26 31h1v1h-1zM28 31h1v1h-1zM30 31h2v1h-2zM36 31h1v1h-1zM38 31h2v1h-2zM41 31h1v1h-1zM2 32h3v1h-3zM6 32h1v1h-1zM8 32h1v1h-1zM10 32h2v1h-2zM14 32h3v1h-3zM20 32h1v1h-1zM22 32h4v1h-4zM30 32h7v1h-7zM40 32h2v1h-2zM2 33h1v1h-1zM4 33h2v1h-2zM7 33h1v1h-1zM10 33h2v1h-2zM13 33h1v1h-1zM20 33h3v1h-3zM24 33h1v1h-1zM26 33h2v1h-2zM29 33h3v1h-3zM34 33h2v1h-2zM38 33h1v1h-1zM41 33h2v1h-2zM2 34h1v1h-1zM7 34h4v1h-4zM13 34h2v1h-2zM16 34h1v1h-1zM18 34h2v1h-2zM21 34h2v1h-2zM26 34h2v1h-2zM31 34h1v1h-1zM33 34h9v1h-9zM10 35h2v1h-2zM14 35h3v1h-3zM19 35h2v1h-2zM22 35h1v1h-1zM24 35h2v1h-2zM27 35h2v1h-2zM32 35h1v1h-1zM34 35h1v1h-1zM38 35h2v1h-2zM41 35h1v1h-1zM2 36h7v1h-7zM13 36h2v1h-2zM16 36h1v1h-1zM18 36h2v1h-2zM23 36h1v1h-1zM26 36h3v1h-3zM32 36h1v1h-1zM34 36h1v1h-1zM36 36h1v1h-1zM38 36h1v1h-1zM40 36h2v1h-2zM2 37h1v1h-1zM8 37h1v1h-1zM13 37h2v1h-2zM18 37h3v1h-3zM24 37h1v1h-1zM27 37h1v1h-1zM30 37h1v1h-1zM33 37h2v1h-2zM38 37h2v1h-2zM42 37h1v1h-1zM2 38h1v1h-1zM4 38h3v1h-3zM8 38h1v1h-1zM12 38h1v1h-1zM15 38h1v1h-1zM17 38h3v1h-3zM22 38h4v1h-4zM27 38h1v1h-1zM31 38h2v1h-2zM34 38h9v1h-9zM2 39h1v1h-1zM4 39h3v1h-3zM8 39h1v1h-1zM12 39h5v1h-5zM19 39h3v1h-3zM23 39h4v1h-4zM29 39h1v1h-1zM33 39h1v1h-1zM37 39h1v1h-1zM40 39h3v1h-3zM2 40h1v1h-1zM4 40h3v1h-3zM8 40h1v1h-1zM13 40h1v1h-1zM15 40h2v1h-2zM18 40h1v1h-1zM20 40h1v1h-1zM23 40h1v1h-1zM27 40h1v1h-1zM29 40h2v1h-2zM32 40h2v1h-2zM36 40h1v1h-1zM38 40h1v1h-1zM41 40h1v1h-1zM2 41h1v1h-1zM8 41h1v1h-1zM11 41h1v1h-1zM13 41h2v1h-2zM18 41h3v1h-3zM24 41h3v1h-3zM28 41h3v1h-3zM33 41h1v1h-1zM36 41h1v1h-1zM38 41h3v1h-3zM42 41h1v1h-1zM2 42h7v1h-7zM10 42h2v1h-2zM14 42h2v1h-2zM17 42h1v1h-1zM20 42h1v1h-1zM24 42h1v1h-1zM27 42h1v1h-1zM29 42h4v1h-4zM35 42h2v1h-2zM38 42h3v1h-3z"/></svg>